<svg width="800" height="754" viewBox="0 0 800 754" fill="none" xmlns="http://www.w3.org/2000/svg">
<path d="M372.984 753.021C330.615 753.021 298.712 718.798 298.712 676.445C298.712 634.292 330.615 602.388 372.984 602.388C415.136 602.388 449.36 634.292 449.36 676.445C449.343 718.8 415.12 753.021 372.984 753.021Z" fill="#3F826D"/>
<path d="M738.17 467.904C733.493 487.601 731.845 522.125 719.37 538.086C711.842 547.719 700.54 553.727 686.167 553.727H256.357C228.661 553.727 206.159 531.424 206.159 503.676C206.159 485.713 154.707 230.669 135.273 134.937C131.234 115.07 111.5 98.8092 91.2526 98.6257L50.3539 98.2337C-4.65396 98.2337 0.10287 46.0393 0.10287 46.0393C1.17044 27.6181 7.44801 16.6226 15.2102 10.1449C30.7706 -2.83281 65.8949 1.78223 85.6784 1.74887L121.47 1.68214C183.039 1.68214 207.329 36.8815 216.876 65.428C223.304 84.6583 226.593 117.514 230.916 137.314L292.368 417.633C296.708 437.433 316.658 453.478 336.909 453.478H618.054C638.321 453.478 658.121 437.433 662.277 417.586L708.169 199.384C714.096 173.759 723.643 161.499 733.43 156.289C751.292 146.714 788.704 160.82 795.749 179.795C806.2 208.033 794.095 255.887 794.095 255.887C794.095 255.887 758.12 384.246 738.17 467.904Z" fill="#3F826D"/>
<path d="M623.814 753.021C581.611 753.021 549.726 718.798 549.726 676.445C549.726 634.292 581.614 602.388 623.814 602.388C665.967 602.388 700.337 634.292 700.337 676.445C700.34 718.8 665.967 753.021 623.814 753.021Z" fill="#3F826D"/>
<path d="M375.556 403.293C361.699 403.293 350.465 392.025 350.465 378.152C350.465 364.313 361.702 353.045 375.556 353.045C389.445 353.045 400.663 364.313 400.663 378.152C400.663 392.028 389.462 403.293 375.556 403.293Z" fill="#3F826D"/>
<path d="M475.985 403.293C462.132 403.293 450.897 392.025 450.897 378.152C450.897 364.313 462.132 353.045 475.985 353.045C489.828 353.045 501.093 364.313 501.093 378.152C501.096 392.028 489.828 403.293 475.985 403.293Z" fill="#3F826D"/>
<path d="M576.388 403.293C562.515 403.293 551.28 392.025 551.28 378.152C551.28 364.313 562.515 353.045 576.388 353.045C590.227 353.045 601.478 364.313 601.478 378.152C601.478 392.028 590.224 403.293 576.388 403.293Z" fill="#3F826D"/>
<path d="M325.338 302.861C311.515 302.861 300.214 291.643 300.214 277.781C300.214 263.933 311.515 252.662 325.338 252.662C339.261 252.662 350.479 263.93 350.479 277.781C350.465 291.643 339.244 302.861 325.338 302.861Z" fill="#3F826D"/>
<path d="M425.771 252.682C439.627 252.682 450.861 263.925 450.861 277.781C450.861 291.643 439.627 302.88 425.771 302.88C411.9 302.88 400.663 291.643 400.663 277.781C400.663 263.925 411.9 252.682 425.771 252.682Z" fill="#3F826D"/>
<path d="M526.187 252.682C540.043 252.682 551.277 263.925 551.277 277.781C551.277 291.643 540.043 302.88 526.187 302.88C512.314 302.88 501.079 291.643 501.079 277.781C501.079 263.925 512.314 252.682 526.187 252.682Z" fill="#3F826D"/>
<path d="M626.586 252.682C640.439 252.682 651.674 263.925 651.674 277.781C651.674 291.643 640.439 302.88 626.586 302.88C612.713 302.88 601.478 291.643 601.478 277.781C601.478 263.925 612.713 252.682 626.586 252.682Z" fill="#3F826D"/>
<path d="M576.388 202.481C562.515 202.481 551.28 191.213 551.28 177.398C551.28 163.517 562.515 152.291 576.388 152.291C590.227 152.291 601.478 163.5 601.478 177.398C601.478 191.213 590.224 202.481 576.388 202.481Z" fill="#3F826D"/>
<path d="M475.985 202.481C462.132 202.481 450.897 191.213 450.897 177.398C450.897 163.517 462.132 152.291 475.985 152.291C489.828 152.291 501.093 163.5 501.093 177.398C501.096 191.213 489.828 202.481 475.985 202.481Z" fill="#3F826D"/>
<path d="M375.556 202.481C361.699 202.481 350.465 191.213 350.465 177.398C350.465 163.517 361.702 152.291 375.556 152.291C389.445 152.291 400.663 163.5 400.663 177.398C400.663 191.213 389.462 202.481 375.556 202.481Z" fill="#3F826D"/>
</svg>
