<svg width="800" height="800" viewBox="0 0 800 800" fill="none" xmlns="http://www.w3.org/2000/svg">
<path fill-rule="evenodd" clip-rule="evenodd" d="M718.404 417.886C718.364 418.266 718.283 418.638 718.123 419.566C718.042 419.987 718.002 420.156 718.123 419.566C704.461 494.218 617.752 529.59 559.812 484.234C577.933 446.043 583.8 402.497 575.362 360.64C603.769 346.645 628.119 325.4 646.16 298.843C695.742 313.26 727.645 366.664 718.123 419.566C718.203 419.102 718.324 418.434 718.404 417.886ZM499.019 716.148C436.619 716.148 388.162 653.307 400.618 589.488C439.151 589.024 478.728 573.922 509.064 549.136C534.056 569.538 565.317 583.252 596.778 587.593C610.801 652.34 562.383 716.148 499.019 716.148ZM378.438 502.945C252.794 474.871 292.613 268.149 418.619 297.066C544.263 325.856 504.484 531.314 378.438 502.945ZM254.643 515.425C271.8 538.694 296.671 558.882 322.145 571.402C312.944 617.011 320.659 664.304 342.758 704.644C221.213 768.632 135.348 573.68 254.643 515.425ZM150.977 501.167C93.1178 484.349 61.7371 415.809 85.7248 358.355C111.239 297.276 186.296 275.816 237.325 315.777C219.163 353.925 213.337 397.513 221.775 439.371C193.367 453.323 168.978 474.569 150.977 501.167ZM196.823 212.339C196.823 212.339 196.703 212.336 196.703 212.378C196.582 212.336 196.622 212.343 196.501 212.3C196.622 212.343 196.743 212.339 196.823 212.339ZM292.653 84.1557C356.942 80.6993 409.457 144.178 396.479 210.484C357.986 210.99 318.409 226.092 288.072 250.835C270.956 236.883 250.584 225.713 229.731 219.39C225.271 218.041 204.458 212.767 198.31 212.261C184.89 149.665 232.945 87.3593 292.653 84.1557ZM542.495 284.585C525.338 261.317 500.466 241.086 474.991 228.609C484.193 183 476.438 135.71 454.339 95.3276C575.925 31.382 661.75 226.289 542.495 284.585ZM676.777 220.953C702.613 60.7726 528.713 -59.8737 398.569 31.5971C268.385 -59.8737 94.5242 60.7306 120.36 220.953C-40.12 277.437 -40.12 522.593 120.36 579.078C94.5242 739.257 268.385 859.842 398.569 768.414C528.713 859.842 702.613 739.257 676.777 579.078C841.395 521.118 840.753 278.659 676.777 220.953Z" fill="#3F826D"/>
</svg>
